<?xml version="1.0" encoding="UTF-8"?>
<svg id="uuid-d746d6b6-1fbf-4e31-8a80-4743c9b62156" xmlns="http://www.w3.org/2000/svg" xmlns:xlink="http://www.w3.org/1999/xlink" version="1.1" viewBox="0 0 287.80005 193.89996">
  <!-- Generator: Adobe Illustrator 29.3.1, SVG Export Plug-In . SVG Version: 2.1.0 Build 151)  -->
  <defs>
    <style>
      .st0 {
        fill: url(#linear-gradient);
      }
    </style>
    <linearGradient id="linear-gradient" x1="143.90002" y1="193.89996" x2="143.90002" y2="0" gradientUnits="userSpaceOnUse">
      <stop offset="0" stop-color="#145891"/>
      <stop offset="1" stop-color="#0e2e53"/>
    </linearGradient>
  </defs>
  <path class="st0" d="M193.10004,69.70001V22.79999c0-14.5,7.20001-22.70001,21.20001-22.70001s21.19995,8.29999,21.19995,22.70001v5.79999h-13.39996v-6.70001c0-6.5-2.79999-8.89996-7.40002-8.89996s-7.39996,2.5-7.39996,8.89996v48.80005c0,6.5,2.79999,8.79999,7.39996,8.79999s7.40002-2.29999,7.40002-8.79999v-8.90002h13.39996v7.90002c0,14.5-7.19995,22.69995-21.19995,22.69995s-21.20001-8.29999-21.20001-22.69995ZM42.40002,69.89996V1.09998h-13.40002v69.70001c0,6.5-2.70001,8.79999-7.29999,8.79999s-7.40002-2.29999-7.40002-8.79999V1.09998H0v68.79999c0,14.40002,7.20001,22.70001,21.20001,22.70001s21.20001-8.20001,21.20001-22.70001ZM81.70001,55.09998L67.10004,1.09998h-17.80005v90.29999h12.80005V26.36963l17.59998,65.03033h14.59998V1.09998h-12.59998v54ZM138.90002,78.5h-23.29999V1.09998h-14.20001v90.29999h37.5v-12.89996ZM287.80005,1.09998h-14.20001l-18.59998,39.29999V1.09998h-14.20001v90.29999h14.20001v-27.69995l4.39996-8.30005v-.09998l13.79999,36h14.60004l-19.70001-50L287.80005,1.09998ZM63.10004,166.59998c-.10004,0-10.5-64.09998-10.5-64.09998h-19.70001v90.29999h12.39996v-63.79999l10.60004,63.79999h13.39996l9.80005-64.79999v64.79999h13.39996v-90.29999h-19.70001l-9.69995,64.09998ZM141.40002,124.19995v47c0,14.5-7.60004,22.70001-21.5,22.70001s-21.5-8.29999-21.5-22.70001c0,0,0-47,0-46.99994,0-14.5,7.59998-22.70001,21.5-22.70001s21.5,8.29999,21.5,22.69995ZM127.20001,123.19995c0-6.5-2.79999-8.89996-7.29999-8.89996s-7.29999,2.5-7.29999,8.89996v48.80005c0,6.5,2.79999,8.89996,7.29999,8.89996s7.29999-2.5,7.29999-8.89996v-48.80005ZM189.79999,181.79999c0,4.39996.10004,7.59998,1.60004,11h-14.40002c-.79999-2.29999-1.29999-3.70001-1.29999-11.10004v-14.19995c0-8.40002-2.79999-11.5-9.29999-11.5h-4.90002v36.79999h-14.19995v-90.29999h21.39996c14.70001,0,21,6.79999,21,20.79999v7.09998c0,9.30005-3,15.30005-9.29999,18.30005,7.09998,3,9.39996,9.79999,9.39996,19.19995v13.90002ZM175.70001,124.70001c0-6.5-2.20001-9.30005-7.20001-9.30005h-6.89996v27.70001h5.59998c5.29999,0,8.5-2.29999,8.5-9.5v-8.89996ZM196.90002,192.79999h38.70001v-12.90002h-24.5v-26.39996h19.5v-12.90002h-19.5v-25.20001h24.5v-12.90002h-38.70001v90.30005ZM241.10004,140.20001l1.79999,32.59998h10.60004l1.79999-32.59998v-37.70001h-14.20001v37.70001ZM241.29999,192.79999h13.70001v-13.70001h-13.70001v13.70001ZM173.20001,47.89996v-26c0-6.39996-2.79999-8.89996-7.40002-8.89996s-7.39996,2.39996-7.39996,8.89996v21.30005l-14.20001-2v-18.40002c0-14.40002,7.60004-22.70001,21.5-22.70001l.09998-.09998c13.90002,0,21.5,8.20001,21.5,22.70001v47.09998c0,14.39996-7.59998,22.70001-21.5,22.70001s-21.5-8.20001-21.5-22.70001v-21.90002h28.90002ZM170.10004,61.70001c0-2.40002-2-4.40002-4.40002-4.40002s-4.39996,2.5-4.39996,4.40002,1.19995,3.5,2.89996,4.09998v12.20001h3v-12.20001c1.70001-.59998,2.90002-1.70001,2.90002-4.09998Z"/>
</svg>