<?xml version="1.0" encoding="UTF-8"?><svg id="a" xmlns="http://www.w3.org/2000/svg" xmlns:xlink="http://www.w3.org/1999/xlink" viewBox="0 0 534.85767 92.4917"><defs><linearGradient id="b" x1="211.88257" y1="92.36279" x2="211.88257" y2="0" gradientUnits="userSpaceOnUse"><stop offset="0" stop-color="#145891"/><stop offset="1" stop-color="#0e2e53"/></linearGradient><linearGradient id="c" x1="21.15552" y1="92.4917" x2="21.15552" y2="1.03223" xlink:href="#b"/><linearGradient id="d" x1="71.78815" y1="91.33057" x2="71.78815" y2="1.03223" xlink:href="#b"/><linearGradient id="e" x1="120.0343" y1="91.33057" x2="120.0343" y2="1.03223" xlink:href="#b"/><linearGradient id="f" x1="261.8678" y1="91.33057" x2="261.8678" y2="1.03223" xlink:href="#b"/><linearGradient id="g" x1="342.30029" y1="91.33057" x2="342.30029" y2="1.03223" xlink:href="#b"/><linearGradient id="h" x1="399.50964" x2="399.50964" xlink:href="#b"/><linearGradient id="i" x1="448.97925" y1="91.33057" x2="448.97925" y2="1.03223" xlink:href="#b"/><linearGradient id="j" x1="495.83783" y1="91.33057" x2="495.83783" y2="1.03223" xlink:href="#b"/><linearGradient id="k" x1="527.76294" y1="91.33057" x2="527.76294" y2="77.65674" xlink:href="#b"/><linearGradient id="l" x1="527.76294" y1="71.33594" x2="527.76294" y2="1.03223" xlink:href="#b"/><linearGradient id="m" x1="163.18494" x2="163.18494" xlink:href="#b"/></defs><path d="M211.88281,0c-13.93213,0-21.15576,8.25586-21.15576,22.70361v46.95508c0,14.44824,7.22363,22.7041,21.15576,22.7041s21.15527-8.25586,21.15527-22.7041v-7.99341h-13.41553v8.89673c0,6.44971-2.83789,8.77197-7.35303,8.77197-4.51465,0-7.35303-2.32227-7.35303-8.77197V21.80078c0-6.44971,2.83838-8.90088,7.35303-8.90088,4.51514,0,7.35303,2.45117,7.35303,8.90088v6.67236h13.41553v-5.76953c0-14.44775-7.22363-22.70361-21.15527-22.70361Z" style="fill:url(#b);"/><path d="M28.89551,70.69092c0,6.44971-2.83838,8.77197-7.35303,8.77197-4.51514,0-7.35303-2.32227-7.35303-8.77197V1.03223H0v68.75586c0,14.44775,7.22363,22.70361,21.15527,22.70361s21.15576-8.25586,21.15576-22.70361V1.03223h-13.41553v69.65869Z" style="fill:url(#c);"/><polygon points="81.65631 55.08203 67.07965 1.03223 49.27789 1.03223 49.27789 91.33057 62.04889 91.33057 62.04889 25.92871 79.72174 91.33057 94.2984 91.33057 94.2984 1.03223 81.65631 1.03223 81.65631 55.08203" style="fill:url(#d);"/><polygon points="115.45471 1.03223 101.26526 1.03223 101.26526 91.33057 138.80334 91.33057 138.80334 78.43066 115.45471 78.43066 115.45471 1.03223" style="fill:url(#e);"/><polygon points="271.15564 1.03223 252.57996 40.37646 252.57996 1.03223 238.39001 1.03223 238.39001 91.33057 252.57996 91.33057 252.57996 63.59619 256.96619 55.34033 270.76892 91.33057 285.34558 91.33057 265.60876 41.2793 285.34558 1.03223 271.15564 1.03223" style="fill:url(#f);"/><polygon points="342.6875 65.14404 332.23828 1.03223 312.50195 1.03223 312.50195 91.33057 324.88574 91.33057 324.88574 27.47656 335.46387 91.33057 348.87891 91.33057 358.68262 26.57373 358.68262 91.33057 372.09863 91.33057 372.09863 1.03223 352.3623 1.03223 342.6875 65.14404" style="fill:url(#g);"/><path d="M399.51013,0c-13.93164,0-21.54297,8.25586-21.54297,22.70361v46.95508c0,14.44824,7.61133,22.7041,21.54297,22.7041s21.54199-8.25586,21.54199-22.7041V22.70361c0-14.44775-7.61035-22.70361-21.54199-22.70361ZM406.86267,70.56201c0,6.44971-2.83789,8.90088-7.35254,8.90088s-7.35352-2.45117-7.35352-8.90088V21.80078c0-6.44971,2.83887-8.90088,7.35352-8.90088s7.35254,2.45117,7.35254,8.90088v48.76123Z" style="fill:url(#h);"/><path d="M469.48999,66.43408c0-9.41699-2.32227-16.25391-9.41699-19.2207,6.32031-2.9668,9.28809-9.02979,9.28809-18.31787v-7.09473c0-13.93164-6.32129-20.76855-21.02734-20.76855h-21.41309v90.29834h14.18945v-36.76416h4.90234c6.44922,0,9.28711,3.0957,9.28711,11.48047v14.18994c0,7.35303.5166,8.77197,1.29004,11.09375h14.44824c-1.41895-3.354-1.54785-6.5791-1.54785-10.96484v-13.93164ZM455.17065,32.12061c0,7.22363-3.22461,9.5459-8.51367,9.5459h-5.54688V13.93213h6.83691c5.03125,0,7.22363,2.83789,7.22363,9.2876v8.90088Z" style="fill:url(#i);"/><polygon points="476.48822 91.33057 515.18744 91.33057 515.18744 78.43066 490.67767 78.43066 490.67767 51.98633 510.15619 51.98633 510.15619 39.08643 490.67767 39.08643 490.67767 13.93213 515.18744 13.93213 515.18744 1.03223 476.48822 1.03223 476.48822 91.33057" style="fill:url(#j);"/><rect x="520.92603" y="77.65674" width="13.67383" height="13.67383" style="fill:url(#k);"/><polygon points="520.66821 1.03223 520.66821 38.69971 522.47388 71.33594 533.052 71.33594 534.85767 38.69971 534.85767 1.03223 520.66821 1.03223" style="fill:url(#l);"/><path d="M163.18494,0c-13.93164,0-21.54248,8.25586-21.54248,22.70361v18.43378l14.18945,2.0036v-21.34021c0-6.44971,2.83789-8.90088,7.35303-8.90088,4.51465,0,7.35303,2.45117,7.35303,8.90088v25.99341h-28.89551v21.8645c0,14.44824,7.61084,22.7041,21.54248,22.7041s21.54248-8.25586,21.54248-22.7041V22.70361c0-14.44775-7.61084-22.70361-21.54248-22.70361ZM164.70325,65.72308v12.22638h-3.03662v-12.22638c-1.67139-.61945-2.86877-2.21423-2.86877-4.10107,0-2.42291,1.96417-4.38708,4.38708-4.38708s4.38708,1.96417,4.38708,4.38708c0,1.88684-1.19739,3.48163-2.86877,4.10107Z" style="fill:url(#m);"/></svg>